<?xml version="1.0" encoding="UTF-8" standalone="no"?>
<svg
   xmlns:dc="http://purl.org/dc/elements/1.1/"
   xmlns:cc="http://creativecommons.org/ns#"
   xmlns:rdf="http://www.w3.org/1999/02/22-rdf-syntax-ns#"
   xmlns:svg="http://www.w3.org/2000/svg"
   xmlns="http://www.w3.org/2000/svg"
   viewBox="0 0 133.33333 133.33333"
   height="133.33333"
   width="133.33333"
   xml:space="preserve"
   id="svg2"
   version="1.1"><metadata
     id="metadata8"><rdf:RDF><cc:Work
         rdf:about=""><dc:format>image/svg+xml</dc:format><dc:type
           rdf:resource="http://purl.org/dc/dcmitype/StillImage" /></cc:Work></rdf:RDF></metadata><defs
     id="defs6"><clipPath
       id="clipPath18"
       clipPathUnits="userSpaceOnUse"><path
         id="path16"
         d="M 0,100 H 100 V 0 H 0 Z" /></clipPath></defs><g
     transform="matrix(1.3333333,0,0,-1.3333333,0,133.33333)"
     id="g10"><g
       id="g12"><g
         clip-path="url(#clipPath18)"
         id="g14"><g
           transform="translate(90.917)"
           id="g20"><path
             id="path22"
             style="fill:#f9e000;fill-opacity:1;fill-rule:nonzero;stroke:none"
             d="m 0,0 h -81.833 c -5.017,0 -9.084,4.066 -9.084,9.083 v 81.834 c 0,5.016 4.067,9.083 9.084,9.083 H 0 c 5.017,0 9.083,-4.067 9.083,-9.083 V 9.083 C 9.083,4.066 5.017,0 0,0" /></g><g
           transform="translate(49.5195,81.8354)"
           id="g24"><path
             id="path26"
             style="fill:#3c1e1e;fill-opacity:1;fill-rule:nonzero;stroke:none"
             d="m 0,0 c -19.738,0 -35.737,-12.722 -35.737,-28.411 0,-9.727 6.147,-18.31 15.52,-23.431 L -22.8,-65.693 c -0.129,-0.689 0.633,-1.194 1.217,-0.809 l 15.352,10.112 c 0,0 4.105,-0.433 6.231,-0.433 19.736,0 35.736,12.721 35.736,28.412 C 35.736,-12.722 19.736,0 0,0" /></g></g></g></g></svg>