<?xml version="1.0" encoding="UTF-8" standalone="no"?>
<svg
   xmlns:dc="http://purl.org/dc/elements/1.1/"
   xmlns:cc="http://creativecommons.org/ns#"
   xmlns:rdf="http://www.w3.org/1999/02/22-rdf-syntax-ns#"
   xmlns:svg="http://www.w3.org/2000/svg"
   xmlns="http://www.w3.org/2000/svg"
   viewBox="0 0 133.33333 133.33333"
   height="133.33333"
   width="133.33333"
   xml:space="preserve"
   id="svg2"
   version="1.1"><metadata
     id="metadata8"><rdf:RDF><cc:Work
         rdf:about=""><dc:format>image/svg+xml</dc:format><dc:type
           rdf:resource="http://purl.org/dc/dcmitype/StillImage" /></cc:Work></rdf:RDF></metadata><defs
     id="defs6"><clipPath
       id="clipPath18"
       clipPathUnits="userSpaceOnUse"><path
         id="path16"
         d="M 0,100 H 100 V 0 H 0 Z" /></clipPath></defs><g
     transform="matrix(1.3333333,0,0,-1.3333333,0,133.33333)"
     id="g10"><g
       id="g12"><g
         clip-path="url(#clipPath18)"
         id="g14"><g
           transform="translate(74.833,27.167)"
           id="g20"><path
             id="path22"
             style="fill:#06be34;fill-opacity:1;fill-rule:nonzero;stroke:none"
             d="M 0,0 H -16.666 L -33,22.986 V 0 H -49.667 V 45.667 H -33 L -16.666,21.75 V 45.667 H 0 Z m 16.059,72.833 h -81.783 c -5.031,0 -9.109,-4.078 -9.109,-9.109 v -81.782 c 0,-5.031 4.078,-9.109 9.109,-9.109 h 81.783 c 5.03,0 9.108,4.078 9.108,9.109 v 81.782 c 0,5.031 -4.078,9.109 -9.108,9.109" /></g><g
           transform="translate(75,73)"
           id="g24"><path
             id="path26"
             style="fill:#ffffff;fill-opacity:1;fill-rule:nonzero;stroke:none"
             d="m 0,0 v -46 h -16.778 l -16.444,23.154 V -46 H -50 V 0 h 16.778 l 16.444,-24.091 V 0 Z" /></g></g></g></g></svg>